<?xml version="1.0" encoding="UTF-8" standalone="no"?>
<svg
   xmlns:dc="http://purl.org/dc/elements/1.1/"
   xmlns:cc="http://creativecommons.org/ns#"
   xmlns:rdf="http://www.w3.org/1999/02/22-rdf-syntax-ns#"
   xmlns:svg="http://www.w3.org/2000/svg"
   xmlns="http://www.w3.org/2000/svg"
   width="436.81976"
   height="63.035488"
   viewBox="0 0 115.57523 16.67814"
   version="1.1"
   id="svg900">

    <rdf:RDF>
      <cc:Work
         rdf:about="">
        <dc:format>image/svg+xml</dc:format>
        <dc:type
           rdf:resource="http://purl.org/dc/dcmitype/StillImage" />
        <dc:title></dc:title>
      </cc:Work>
    </rdf:RDF>
  </metadata>
  <g
     id="layer1"
     transform="translate(-25.020128,-78.450896)">
    <g
       id="text4501"
       style="font-style:normal;font-weight:normal;font-size:10.5833px;line-height:1.25;font-family:sans-serif;letter-spacing:0px;word-spacing:0px;fill:#d7172f;fill-opacity:1;stroke:none;stroke-width:0.264583"
       aria-label="broken"
       transform="translate(11.689073,151.54529)">
      <path
         id="path4521"
         style="font-style:normal;font-variant:normal;font-weight:500;font-stretch:normal;font-size:10.5833px;font-family:CheltenhamCndbi;-inkscape-font-specification:'CheltenhamCndbi, Medium';text-align:start;writing-mode:lr-tb;text-anchor:start;fill:#d7172f;fill-opacity:1;stroke-width:0.264583"
         d="m 102.38324,-64.583846 -0.59267,2.561167 q 0.127,-0.02117 0.24342,-0.05292 0.127,-0.03175 0.254,-0.05292 0.127,-0.02117 0.24342,-0.03175 0.127,-0.02117 0.254,-0.02117 0.66675,0 1.143,0.455083 0.48683,0.4445 0.48683,1.322917 0,1.375833 -0.94192,2.455333 -0.93133,1.068917 -2.42358,1.068917 -0.127,0 -0.30692,-0.02117 -0.16933,-0.01058 -0.35983,-0.0635 -0.33867,-0.09525 -0.624416,-0.3175 -0.275167,-0.232833 -0.275167,-0.709083 0,-0.08467 0.01058,-0.15875 0.01058,-0.07408 0.03175,-0.148167 0,-0.04233 0.01058,-0.07408 0.01058,-0.04233 0.02117,-0.07408 0.01058,-0.04233 0.01058,-0.07408 0.01058,-0.04233 0.02117,-0.08467 l 1.121833,-4.963583 q 0.0106,-0.02117 0.0106,-0.04233 0.0106,-0.02117 0.0212,-0.04233 0,-0.02117 0,-0.04233 0.0106,-0.02117 0.0106,-0.05292 0,-0.148167 -0.0635,-0.201084 -0.0529,-0.05292 -0.11642,-0.07408 -0.0106,0 -0.0212,0 -0.0106,-0.01058 -0.0212,-0.01058 -0.0529,-0.01058 -0.0952,-0.03175 -0.0423,-0.03175 -0.0423,-0.105834 0,-0.04233 0,-0.08467 0.0106,-0.04233 0.0212,-0.08467 0,-0.04233 0.0106,-0.08467 0.0212,-0.04233 0.0318,-0.08467 l 1.92617,-0.07408 z m -0.762,3.280834 -0.71967,3.153833 q 0,0.04233 -0.0106,0.07408 -0.0106,0.03175 -0.0106,0.07408 -0.0106,0.01058 -0.0106,0.03175 0,0.01058 -0.0106,0.03175 -0.0106,0.05292 -0.0212,0.105834 0,0.04233 0,0.09525 0,0.22225 0.10584,0.328083 0.10583,0.09525 0.27516,0.09525 0.508,0 0.87842,-0.582083 0.37042,-0.592667 0.5715,-1.291167 0.10583,-0.381 0.15875,-0.751417 0.0635,-0.370416 0.0635,-0.634999 0,-0.04233 -0.0106,-0.08467 0,-0.05292 0,-0.105833 -0.0318,-0.296334 -0.17992,-0.53975 -0.14817,-0.243417 -0.42333,-0.243417 -0.0635,0 -0.14817,0.02117 -0.0741,0.02117 -0.15875,0.05292 -0.0529,0.02117 -0.11642,0.05292 -0.0529,0.02117 -0.10583,0.05292 -0.0318,0.02117 -0.0635,0.04233 -0.0318,0.01058 -0.0635,0.03175 z" />
      <path
         id="path4523"
         style="font-style:normal;font-variant:normal;font-weight:500;font-stretch:normal;font-size:10.5833px;font-family:CheltenhamCndbi;-inkscape-font-specification:'CheltenhamCndbi, Medium';text-align:start;writing-mode:lr-tb;text-anchor:start;fill:#d7172f;fill-opacity:1;stroke-width:0.264583"
         d="m 106.80261,-58.911179 -0.508,1.8415 h -1.37583 l 0.381,-1.651 q 0.0318,-0.127 0.0635,-0.306917 0.0423,-0.179917 0.0847,-0.381 0.0106,-0.08467 0.0212,-0.169333 0.0212,-0.09525 0.0423,-0.179917 0.0529,-0.296333 0.0847,-0.5715 0.0423,-0.28575 0.0423,-0.47625 0,-0.243416 -0.0741,-0.28575 -0.0741,-0.05292 -0.15875,-0.0635 0,0 -0.0106,0 0,0 0,0 -0.0847,0 -0.14817,-0.02117 -0.0635,-0.03175 -0.0741,-0.179917 l -0.0635,-0.28575 q 0.34925,-0.02117 0.61383,-0.09525 0.27517,-0.07408 0.46567,-0.15875 0.254,-0.105833 0.39158,-0.1905 0.14817,-0.09525 0.20108,-0.09525 0.0635,0 0.0847,0.116417 0.0317,0.116416 0.0529,0.243416 0.0106,0.127 0.0106,0.232834 0,0.09525 0,0.127 0,0.3175 -0.0318,0.635 -0.0317,0.3175 -0.0952,0.635 l 0.0423,-0.01058 q 0.0741,-0.148166 0.15875,-0.338666 0.0847,-0.201084 0.17992,-0.402167 0.23283,-0.465667 0.53975,-0.846667 0.3175,-0.391583 0.75142,-0.391583 0.254,0 0.46566,0.211667 0.21167,0.201083 0.21167,0.508 0,0.359833 -0.22225,0.624416 -0.21167,0.264584 -0.51858,0.264584 -0.14817,0 -0.254,-0.05292 -0.10584,-0.0635 -0.17992,-0.137583 -0.0741,-0.07408 -0.127,-0.127 -0.0423,-0.0635 -0.0952,-0.0635 -0.0741,0 -0.1905,0.1905 -0.11642,0.179916 -0.23283,0.4445 -0.0529,0.105833 -0.10584,0.222249 -0.0423,0.116417 -0.0847,0.22225 -0.11642,0.296334 -0.21167,0.5715 -0.0847,0.264584 -0.127,0.402167 z" />
      <path
         id="path4525"
         style="font-style:normal;font-variant:normal;font-weight:500;font-stretch:normal;font-size:10.5833px;font-family:CheltenhamCndbi;-inkscape-font-specification:'CheltenhamCndbi, Medium';text-align:start;writing-mode:lr-tb;text-anchor:start;fill:#d7172f;fill-opacity:1;stroke-width:0.264583"
         d="m 111.88476,-62.192012 q 0.8255,0.01058 1.44992,0.60325 0.62441,0.592666 0.62441,1.629833 0,1.344083 -0.80433,2.211916 -0.80433,0.867834 -1.9685,0.867834 -0.8255,0 -1.44992,-0.60325 -0.62441,-0.60325 -0.62441,-1.629834 0,-1.354666 0.83608,-2.211916 0.84667,-0.85725 1.93675,-0.85725 z m 0.10583,0.423333 q -0.39158,0.01058 -0.68791,0.582083 -0.29634,0.5715 -0.47625,1.248833 -0.127,0.47625 -0.1905,0.910167 -0.0635,0.433917 -0.0635,0.677333 0,0.08467 0,0.1905 0.0106,0.09525 0.0318,0.1905 0.0318,0.254 0.13758,0.455084 0.11642,0.201083 0.33867,0.201083 0.40216,0 0.6985,-0.5715 0.29633,-0.5715 0.47625,-1.248833 0.11641,-0.47625 0.17991,-0.910167 0.0635,-0.433916 0.0635,-0.677333 0,-0.08467 -0.0106,-0.179917 0,-0.105833 -0.0106,-0.201083 -0.0318,-0.254 -0.13759,-0.455083 -0.10583,-0.201084 -0.34925,-0.201084 z" />
    </g>
    <g
       id="text4505"
       style="font-style:normal;font-weight:normal;font-size:10.5833px;line-height:1.25;font-family:sans-serif;letter-spacing:0px;word-spacing:0px;fill:#d7172f;fill-opacity:1;stroke:none;stroke-width:0.264583"
       aria-label="ke"
       transform="translate(11.649885,151.54205)">
      <path
         id="path4534"
         style="font-style:normal;font-variant:normal;font-weight:500;font-stretch:normal;font-size:10.5833px;font-family:CheltenhamCndbi;-inkscape-font-specification:'CheltenhamCndbi, Medium';text-align:start;writing-mode:lr-tb;text-anchor:start;fill:#d7172f;fill-opacity:1;stroke-width:0.264583"
         d="m 114.25169,-57.069679 1.50283,-6.498167 q 0,-0.02117 0,-0.04233 0.0106,-0.02117 0.0106,-0.04233 0,-0.02117 0,-0.04233 0.0106,-0.02117 0.0106,-0.05292 0,-0.148167 -0.0635,-0.201084 -0.0529,-0.05292 -0.11642,-0.0635 -0.0106,0 -0.0212,0 -0.0106,-0.01058 -0.0106,-0.01058 -0.0635,-0.01058 -0.10583,-0.03175 -0.0423,-0.03175 -0.0423,-0.116417 0,-0.04233 0,-0.08467 0.0106,-0.04233 0.0212,-0.08467 0.0106,-0.01058 0.0106,-0.02117 0,-0.02117 0.0106,-0.03175 0,-0.03175 0.0106,-0.0635 0.0106,-0.03175 0.0106,-0.05292 l 1.92616,-0.07408 -0.61383,2.645834 q 0.28575,-0.105834 0.58208,-0.169334 0.30692,-0.07408 0.62442,-0.07408 0.43392,0 0.77258,0.243417 0.34925,0.243416 0.34925,0.836083 0,0.518583 -0.32808,0.899583 -0.32808,0.381 -0.71967,0.624417 -0.0953,0.05292 -0.1905,0.105833 -0.0953,0.04233 -0.17991,0.08467 0.0423,0.105833 0.10583,0.328083 0.0741,0.22225 0.15875,0.455083 0.11642,0.328084 0.254,0.60325 0.14817,0.264584 0.30692,0.264584 0.0847,0 0.127,-0.03175 0.0529,-0.03175 0.0953,-0.07408 0.0212,-0.03175 0.0423,-0.05292 0.0318,-0.03175 0.0529,-0.05292 l 0.10583,0.179917 q 0,0.02117 0,0.04233 0.0106,0.01058 0.0212,0.03175 0.0106,0.01058 0.0106,0.03175 0.0106,0.01058 0.0106,0.03175 0,0.0635 -0.0423,0.137583 -0.0317,0.07408 -0.10583,0.148167 -0.127,0.15875 -0.35984,0.28575 -0.22225,0.127 -0.45508,0.169333 -0.0423,0 -0.0847,0 -0.0317,0.01058 -0.0741,0.01058 -0.61383,0 -0.86783,-0.4445 -0.24342,-0.4445 -0.42334,-1.068917 -0.0529,-0.15875 -0.0953,-0.3175 -0.0423,-0.15875 -0.0952,-0.3175 -0.0106,-0.02117 -0.0212,-0.03175 0,-0.02117 0,-0.03175 l -0.21167,-0.01058 -0.46567,2.032 h -1.43933 z m 2.39183,-4.212167 -0.381,1.693333 q 0.0529,0.01058 0.10584,0 0.0529,-0.01058 0.0953,-0.02117 0.48683,-0.116417 0.87841,-0.529167 0.40217,-0.41275 0.40217,-1.026583 0,-0.211667 -0.11642,-0.3175 -0.10583,-0.105833 -0.28575,-0.105833 -0.0635,0 -0.15875,0.03175 -0.0847,0.02117 -0.16933,0.0635 -0.0635,0.03175 -0.11642,0.0635 -0.0529,0.02117 -0.0953,0.05292 -0.0529,0.03175 -0.0952,0.0635 -0.0318,0.02117 -0.0635,0.04233 z" />
      <path
         id="path4536"
         style="font-style:normal;font-variant:normal;font-weight:500;font-stretch:normal;font-size:10.5833px;font-family:CheltenhamCndbi;-inkscape-font-specification:'CheltenhamCndbi, Medium';text-align:start;writing-mode:lr-tb;text-anchor:start;fill:#d7172f;fill-opacity:1;stroke-width:0.264583"
         d="m 123.03982,-58.276179 0.254,0.3175 q -0.27516,0.433916 -0.70908,0.6985 -0.42333,0.264583 -0.889,0.338666 -0.10583,0.02117 -0.21167,0.03175 -0.0953,0.01058 -0.20108,0.01058 -0.74083,0 -1.29117,-0.486834 -0.55033,-0.497416 -0.55033,-1.449916 0,-1.397 0.91017,-2.38125 0.92075,-0.98425 2.07433,-0.98425 0.0635,0 0.127,0.01058 0.0741,0 0.13758,0.01058 0.381,0.0635 0.68792,0.328083 0.3175,0.254 0.3175,0.79375 0,0.73025 -0.6985,1.30175 -0.6985,0.560916 -1.98967,0.560916 -0.0106,0 -0.0212,0 -0.0106,-0.01058 -0.0318,-0.01058 -0.0106,0 -0.0318,0 -0.0106,-0.01058 -0.0212,-0.01058 l -0.0212,0.41275 q 0,0.529166 0.1905,0.92075 0.1905,0.381 0.6985,0.381 0.381,0 0.6985,-0.232834 0.3175,-0.232833 0.5715,-0.550333 z m -2.07433,-1.418167 q 0.73025,0 1.12183,-0.328083 0.39159,-0.328083 0.55034,-0.709083 0.0529,-0.148167 0.0741,-0.28575 0.0317,-0.148167 0.0317,-0.275167 0,-0.179917 -0.0847,-0.3175 -0.0741,-0.148167 -0.23283,-0.148167 -0.34925,0 -0.66675,0.391584 -0.3175,0.381 -0.52917,0.846666 -0.10583,0.22225 -0.17991,0.4445 -0.0635,0.22225 -0.0847,0.391583 z" />
    </g>
    <g
       id="text4509"
       style="font-style:normal;font-weight:normal;font-size:10.5833px;line-height:1.25;font-family:sans-serif;letter-spacing:0px;word-spacing:0px;fill:#d7172f;fill-opacity:1;stroke:none;stroke-width:0.264583"
       aria-label="n"
       transform="translate(11.643791,151.52786)">
      <path
         id="path4539"
         style="font-style:normal;font-variant:normal;font-weight:500;font-stretch:normal;font-size:10.5833px;font-family:CheltenhamCndbi;-inkscape-font-specification:'CheltenhamCndbi, Medium';text-align:start;writing-mode:lr-tb;text-anchor:start;fill:#d7172f;fill-opacity:1;stroke-width:0.264583"
         d="m 123.78709,-57.049511 h 0.1905 l 0.889,-3.915833 q 0.0106,-0.01058 0.0106,-0.02117 0,-0.01058 0,-0.03175 0.0106,-0.02117 0.0106,-0.05292 0,-0.03175 0,-0.07408 0,-0.137583 -0.0529,-0.179916 -0.0529,-0.05292 -0.11642,-0.07408 -0.0106,-0.01058 -0.0212,-0.01058 -0.0106,0 -0.0212,-0.01058 -0.0529,-0.01058 -0.0953,-0.03175 -0.0317,-0.03175 -0.0317,-0.09525 0,-0.03175 0,-0.0635 0.0106,-0.04233 0.0212,-0.07408 0,-0.03175 0,-0.05292 0.0106,-0.02117 0.0212,-0.04233 0,-0.03175 0.0106,-0.05292 0.0106,-0.03175 0.0106,-0.05292 l 0.23283,-0.01058 q 0.127,0.01058 0.3175,0 0.1905,-0.02117 0.39158,-0.04233 0.21167,-0.03175 0.40217,-0.07408 0.20108,-0.05292 0.32808,-0.105833 0.0212,-0.01058 0.0423,-0.01058 0.0212,-0.01058 0.0423,-0.02117 0.0212,0 0.0423,0 0.0318,-0.01058 0.0423,-0.01058 0.0529,0 0.0529,0.03175 0.0106,0.02117 0.0106,0.07408 0,0.01058 -0.0106,0.05292 -0.0106,0.04233 -0.0212,0.09525 -0.0106,0.04233 -0.0212,0.08467 -0.0106,0.04233 -0.0106,0.0635 l -0.0423,0.179917 q 0.3175,-0.264584 0.67734,-0.423334 0.37041,-0.15875 0.762,-0.15875 0.0423,0 0.0741,0.01058 0.0423,0 0.0847,0 0.33866,0.05292 0.62441,0.3175 0.29634,0.254 0.29634,0.709083 0,0.0635 -0.0106,0.137583 0,0.0635 -0.0106,0.127 -0.0106,0.0635 -0.0318,0.127 -0.0106,0.05292 -0.0212,0.116417 -0.0106,0.03175 -0.0212,0.07408 0,0.04233 -0.0106,0.07408 l -0.55033,2.465917 q -0.0106,0.07408 -0.0317,0.137583 -0.0106,0.0635 -0.0106,0.127 0,0.0635 0.0317,0.116417 0.0423,0.05292 0.11641,0.05292 0.11642,0 0.22225,-0.08467 0.10584,-0.08467 0.17992,-0.179917 0.0106,-0.01058 0.0212,-0.02117 0.0106,-0.02117 0.0212,-0.03175 0.0106,0.02117 0.0212,0.0635 0.0212,0.04233 0.0423,0.08467 0,0 0,0.01058 0.0106,0 0.0106,0.01058 0.0212,0.05292 0.0317,0.105833 0.0212,0.04233 0.0212,0.0635 0,0.05292 -0.0318,0.116417 -0.0317,0.05292 -0.0847,0.116417 -0.10584,0.116416 -0.27517,0.22225 -0.16933,0.105833 -0.35983,0.169333 -0.0847,0.03175 -0.16934,0.04233 -0.0847,0.02117 -0.15875,0.02117 -0.0741,0 -0.16933,-0.01058 -0.0847,-0.01058 -0.16933,-0.04233 -0.27517,-0.07408 -0.49742,-0.275166 -0.22225,-0.201084 -0.22225,-0.529167 0,-0.08467 0.0106,-0.1905 0.0212,-0.116417 0.0423,-0.232833 0.0106,-0.02117 0.0106,-0.04233 0.0106,-0.02117 0.0106,-0.04233 0.0106,-0.0635 0.0212,-0.127 0.0212,-0.07408 0.0318,-0.127 l 0.52917,-2.275417 q 0.0106,-0.01058 0.0106,-0.03175 0.0106,-0.03175 0.0106,-0.0635 0.0106,-0.02117 0.0106,-0.04233 0.0106,-0.03175 0.0106,-0.05292 0.0106,-0.04233 0.0106,-0.08467 0.0106,-0.04233 0.0106,-0.07408 0,-0.179916 -0.0953,-0.264583 -0.0847,-0.09525 -0.24342,-0.09525 -0.0741,0 -0.16933,0.03175 -0.0847,0.02117 -0.16934,0.0635 -0.15875,0.07408 -0.30691,0.201084 -0.14817,0.126999 -0.26459,0.264583 -0.0106,0.01058 -0.0212,0.03175 -0.0106,0.01058 -0.0212,0.02117 l -0.86783,3.799417 h -1.5875 z" />
    </g>
    <path
       d="m 35.885508,84.398307 h -0.649102 q -0.335742,0 -0.514805,-0.332175 -0.179063,-0.332175 -0.335743,-0.841509 -0.134298,-0.509335 -0.268594,-1.085105 -0.134298,-0.575769 -0.402891,-1.085104 -0.246212,-0.509335 -0.649104,-0.84151 -0.40289,-0.332175 -1.074375,-0.332175 -0.917698,0 -1.522034,0.57577 -0.581955,0.553625 -0.94008,1.483714 -0.335742,0.93009 -0.47004,2.125919 -0.134296,1.19583 -0.134296,2.458094 0,1.372989 0.134296,2.635253 0.134298,1.24012 0.47004,2.214499 0.358125,0.952235 0.962463,1.528005 0.604337,0.575769 1.522033,0.575769 0.895314,0 1.432503,-0.4429 0.559571,-0.442899 0.87293,-1.040814 0.31336,-0.597914 0.425274,-1.24012 0.134297,-0.642204 0.179063,-1.040814 l 1.298205,0.819366 q -0.313359,2.059483 -1.410119,3.188878 -1.074377,1.129393 -2.797856,1.129393 -1.723479,0 -2.999301,-0.664349 -1.25344,-0.686494 -2.081605,-1.815889 -0.828165,-1.129394 -1.231057,-2.568818 -0.402891,-1.46157 -0.402891,-2.989574 0,-1.550149 0.380509,-2.989573 0.402891,-1.46157 1.163908,-2.590964 0.761016,-1.129395 1.880159,-1.815889 1.119142,-0.686495 2.574027,-0.686495 0.693869,0 1.231056,0.17716 0.559572,0.17716 0.94008,0.376465 0.402891,0.199304 0.649103,0.376464 0.246211,0.17716 0.358125,0.17716 0.223828,0 0.31336,-0.155014 0.111915,-0.155015 0.15668,-0.287885 h 0.940079 z"
       style="font-style:normal;font-variant:normal;font-weight:normal;font-stretch:normal;font-size:22.2636px;line-height:1.25;font-family:CheltenhamITCW01-BoldCn;-inkscape-font-specification:'CheltenhamITCW01-BoldCn, Normal';text-align:start;letter-spacing:0px;word-spacing:0px;writing-mode:lr-tb;text-anchor:start;fill:#d7172f;fill-opacity:1;stroke:#d7172f;stroke-width:0.556588;stroke-opacity:1"
       id="path930" />
    <path
       d="m 39.14536,80.965834 q 0,-0.465045 -0.156679,-0.62006 Q 38.832,80.168614 38.630555,80.124325 38.42911,80.05789 38.272429,80.0136 q -0.15668,-0.04429 -0.15668,-0.287885 v -0.686496 h 5.327118 v 0.686496 q 0,0.243595 -0.15668,0.287885 -0.156681,0.04429 -0.358126,0.110725 -0.201445,0.04429 -0.358126,0.221449 -0.15668,0.155015 -0.15668,0.62006 v 12.423339 h 1.275822 q 0.872932,0 1.41012,-0.17716 0.537189,-0.177161 0.850548,-0.4429 0.31336,-0.287885 0.447657,-0.62006 0.15668,-0.354319 0.223829,-0.70864 0.04477,-0.243595 0.08953,-0.509334 0.04477,-0.26574 0.134297,-0.48719 0.08953,-0.243594 0.268594,-0.39861 0.179063,-0.155015 0.492422,-0.155015 h 0.537189 v 4.650448 H 38.115745 v -0.686495 q 0,-0.243594 0.15668,-0.287884 0.156681,-0.04429 0.358126,-0.08859 0.201445,-0.06643 0.358126,-0.22145 0.156679,-0.17716 0.156679,-0.642204 z"
       style="font-style:normal;font-variant:normal;font-weight:normal;font-stretch:normal;font-size:22.2636px;line-height:1.25;font-family:CheltenhamITCW01-BoldCn;-inkscape-font-specification:'CheltenhamITCW01-BoldCn, Normal';text-align:start;letter-spacing:0px;word-spacing:0px;writing-mode:lr-tb;text-anchor:start;fill:#d7172f;fill-opacity:1;stroke:#d7172f;stroke-width:0.556588;stroke-opacity:1"
       id="path932" />
    <path
       d="m 50.328391,80.965834 q 0,-0.465045 -0.15668,-0.62006 -0.156681,-0.17716 -0.358126,-0.221449 -0.201445,-0.06643 -0.358126,-0.110725 -0.15668,-0.04429 -0.15668,-0.287885 v -0.686496 h 7.610168 q 0.693869,0 1.342971,-0.04429 0.649102,-0.04429 1.141525,-0.26574 V 83.3132 h -0.537188 q -0.402892,0 -0.581954,-0.22145 -0.179063,-0.243595 -0.290977,-0.575769 -0.111914,-0.354321 -0.223829,-0.752931 -0.08953,-0.420754 -0.31336,-0.752929 -0.223828,-0.35432 -0.671485,-0.57577 -0.425274,-0.243594 -1.18629,-0.243594 h -1.992074 v 5.691262 h 0.850548 q 0.537188,0 0.828165,-0.110725 0.290977,-0.132871 0.425275,-0.310031 0.134296,-0.17716 0.179062,-0.376464 0.06715,-0.22145 0.111914,-0.39861 0.06715,-0.17716 0.179063,-0.287885 0.134297,-0.13287 0.425275,-0.13287 h 0.626719 v 4.473288 h -0.626719 q -0.290978,0 -0.425275,-0.110725 -0.111914,-0.13287 -0.179063,-0.310029 -0.04477,-0.177161 -0.111914,-0.376466 -0.04477,-0.22145 -0.179062,-0.398609 -0.134298,-0.17716 -0.425275,-0.287885 -0.290977,-0.13287 -0.828165,-0.13287 h -0.850548 v 6.267032 h 2.171136 q 0.872931,0 1.410119,-0.17716 0.537189,-0.17716 0.850548,-0.4429 0.31336,-0.287885 0.447657,-0.62006 0.15668,-0.354319 0.223829,-0.70864 0.04477,-0.243595 0.08953,-0.509334 0.04477,-0.26574 0.134297,-0.48719 0.08953,-0.243594 0.268594,-0.39861 0.179063,-0.155015 0.492423,-0.155015 h 0.537189 v 4.650448 H 49.298779 v -0.686495 q 0,-0.243594 0.15668,-0.287884 0.156681,-0.04429 0.358126,-0.08859 0.201445,-0.06643 0.358126,-0.22145 0.15668,-0.17716 0.15668,-0.642204 z"
       style="font-style:normal;font-variant:normal;font-weight:normal;font-stretch:normal;font-size:22.2636px;line-height:1.25;font-family:CheltenhamITCW01-BoldCn;-inkscape-font-specification:'CheltenhamITCW01-BoldCn, Normal';text-align:start;letter-spacing:0px;word-spacing:0px;writing-mode:lr-tb;text-anchor:start;fill:#d7172f;fill-opacity:1;stroke:#d7172f;stroke-width:0.556588;stroke-opacity:1"
       id="path934" />
    <path
       d="m 64.455813,90.466034 -0.380509,1.217975 q -0.08953,0.310029 -0.134296,0.575769 -0.02238,0.26574 -0.02238,0.376464 0,0.354321 0.179063,0.509335 0.201445,0.155015 0.402891,0.26574 0.223829,0.08859 0.40289,0.199306 0.201447,0.110725 0.201447,0.376464 v 0.553625 h -3.984147 v -0.553625 q 0,-0.265739 0.15668,-0.332175 0.134297,-0.08857 0.358126,-0.199304 0.223828,-0.13287 0.447656,-0.376466 0.246211,-0.265739 0.447657,-0.885799 l 3.155981,-10.341709 q 0.08954,-0.265741 0.08954,-0.509335 0,-0.4429 -0.156681,-0.730785 -0.134296,-0.310029 -0.134296,-0.4429 0,-0.110725 0.04477,-0.17716 0.04477,-0.06643 0.223829,-0.17716 l 1.678713,-0.907944 q 0.134298,-0.06643 0.223829,-0.110725 0.111914,-0.06643 0.290977,-0.06643 0.246211,0 0.358125,0.332175 l 4.655632,13.619168 q 0.134298,0.398609 0.335743,0.553625 0.201445,0.155015 0.402891,0.243594 0.201445,0.06643 0.335743,0.132871 0.134296,0.06643 0.134296,0.265739 v 0.66435 h -5.550957 v -0.4429 q 0,-0.332175 0.15668,-0.465045 0.15668,-0.132869 0.358126,-0.199304 0.201445,-0.08858 0.358125,-0.177161 0.15668,-0.08858 0.15668,-0.332174 0,-0.26574 -0.179062,-0.797219 l -0.581955,-1.660875 z m 3.961763,-1.372989 -1.790628,-5.646972 h -0.08953 l -1.633948,5.646972 z"
       style="font-style:normal;font-variant:normal;font-weight:normal;font-stretch:normal;font-size:22.2636px;line-height:1.25;font-family:CheltenhamITCW01-BoldCn;-inkscape-font-specification:'CheltenhamITCW01-BoldCn, Normal';text-align:start;letter-spacing:0px;word-spacing:0px;writing-mode:lr-tb;text-anchor:start;fill:#d7172f;fill-opacity:1;stroke:#d7172f;stroke-width:0.556588;stroke-opacity:1"
       id="path936" />
    <path
       d="m 75.683956,80.965834 q 0,-0.465045 -0.156681,-0.62006 -0.156679,-0.17716 -0.358124,-0.221449 -0.201447,-0.06643 -0.358126,-0.110725 -0.15668,-0.04429 -0.15668,-0.287885 v -0.686496 h 6.065751 q 1.320588,0 2.193519,0.354321 0.872931,0.35432 1.387736,0.907945 0.537189,0.553624 0.761017,1.262264 0.223829,0.708639 0.223829,1.395134 0,0.70864 -0.223829,1.395134 -0.201446,0.66435 -0.671485,1.19583 -0.447657,0.509334 -1.141526,0.841509 -0.671485,0.31003 -1.611564,0.31003 h -0.358126 v 0.132869 q 0.492423,0.110725 0.805783,0.243596 0.335742,0.13287 0.559571,0.35432 0.223828,0.199304 0.380508,0.48719 0.15668,0.287885 0.358126,0.664349 l 2.103987,4.052532 q 0.223828,0.4429 0.447657,0.66435 0.223828,0.22145 0.402891,0.332175 0.179063,0.08859 0.290978,0.155016 0.111914,0.04429 0.111914,0.155014 v 0.597915 h -3.894616 l -3.021683,-6.466337 q -0.201446,-0.420754 -0.402892,-0.57577 -0.179063,-0.155015 -0.47004,-0.177159 v 5.292652 q 0,0.465044 0.15668,0.642204 0.156681,0.155015 0.358126,0.22145 0.201445,0.04429 0.358126,0.08859 0.156679,0.04429 0.156679,0.287884 v 0.686495 h -5.327117 v -0.686495 q 0,-0.243594 0.15668,-0.287884 0.156679,-0.04429 0.358126,-0.08859 0.201445,-0.06643 0.358124,-0.22145 0.156681,-0.17716 0.156681,-0.642204 z m 3.267895,5.204072 q 0.738634,-0.02214 1.298205,-0.08858 0.559572,-0.06643 0.917696,-0.35432 0.38051,-0.310029 0.559572,-0.8858 0.201446,-0.597914 0.201446,-1.660873 0,-1.062959 -0.201446,-1.63873 -0.179062,-0.597914 -0.559572,-0.885799 -0.358124,-0.31003 -0.917696,-0.376465 -0.559571,-0.06643 -1.298205,-0.08857 z"
       style="font-style:normal;font-variant:normal;font-weight:normal;font-stretch:normal;font-size:22.2636px;line-height:1.25;font-family:CheltenhamITCW01-BoldCn;-inkscape-font-specification:'CheltenhamITCW01-BoldCn, Normal';text-align:start;letter-spacing:0px;word-spacing:0px;writing-mode:lr-tb;text-anchor:start;fill:#d7172f;fill-opacity:1;stroke:#d7172f;stroke-width:0.556588;stroke-opacity:1"
       id="path938" />
    <path
       d="m 88.501284,80.965834 q 0,-0.465045 -0.156679,-0.62006 -0.15668,-0.17716 -0.358125,-0.221449 -0.201447,-0.06643 -0.358126,-0.110725 -0.15668,-0.04429 -0.15668,-0.287885 v -0.686496 h 5.327117 v 0.686496 q 0,0.243595 -0.15668,0.287885 -0.15668,0.04429 -0.358125,0.110725 -0.201446,0.04429 -0.358126,0.221449 -0.15668,0.155015 -0.15668,0.62006 v 12.423339 h 1.275822 q 0.872931,0 1.41012,-0.17716 0.537188,-0.177161 0.850548,-0.4429 0.31336,-0.287885 0.447657,-0.62006 0.15668,-0.354319 0.223828,-0.70864 0.04477,-0.243595 0.08954,-0.509334 0.04477,-0.26574 0.134296,-0.48719 0.08953,-0.243594 0.268595,-0.39861 0.179062,-0.155015 0.492422,-0.155015 h 0.537188 v 4.650448 H 87.471679 v -0.686495 q 0,-0.243594 0.15668,-0.287884 0.15668,-0.04429 0.358126,-0.08859 0.201445,-0.06643 0.358125,-0.22145 0.156679,-0.17716 0.156679,-0.642204 z"
       style="font-style:normal;font-variant:normal;font-weight:normal;font-stretch:normal;font-size:22.2636px;line-height:1.25;font-family:CheltenhamITCW01-BoldCn;-inkscape-font-specification:'CheltenhamITCW01-BoldCn, Normal';text-align:start;letter-spacing:0px;word-spacing:0px;writing-mode:lr-tb;text-anchor:start;fill:#d7172f;fill-opacity:1;stroke:#d7172f;stroke-width:0.556588;stroke-opacity:1"
       id="path940" />
    <path
       d="m 104.11786,92.614098 q 0,0.465044 0.1343,0.642204 0.15668,0.155015 0.31336,0.22145 0.17906,0.04429 0.31336,0.08859 0.15668,0.04429 0.15668,0.287884 v 0.686495 h -5.103286 v -0.686495 q 0,-0.243594 0.134296,-0.287884 0.15668,-0.04429 0.31336,-0.08859 0.17906,-0.06643 0.31336,-0.22145 0.15668,-0.17716 0.15668,-0.642204 v -4.916187 l -2.865004,-6.156308 q -0.31336,-0.664349 -0.604336,-0.930089 -0.268595,-0.287885 -0.492424,-0.39861 -0.223828,-0.132869 -0.335742,-0.17716 -0.134297,-0.06643 -0.134297,-0.287884 v -0.708641 h 5.841923 v 0.708641 q 0,0.199304 -0.17907,0.287884 -0.15667,0.06643 -0.3805,0.13287 -0.20145,0.06643 -0.38051,0.199305 -0.15668,0.110725 -0.15668,0.376465 0,0.17716 0.11191,0.53148 0.13431,0.332175 0.51481,1.107249 l 1.65633,3.410328 1.61156,-3.211023 q 0.31336,-0.66435 0.49243,-1.085104 0.17906,-0.4429 0.17906,-0.70864 0,-0.287885 -0.17906,-0.39861 -0.15668,-0.13287 -0.38051,-0.199304 -0.20144,-0.08858 -0.38051,-0.155016 -0.15668,-0.08858 -0.15668,-0.287884 v -0.708641 h 3.93938 v 0.62006 q 0,0.26574 -0.11191,0.332175 -0.11192,0.06643 -0.29098,0.155015 -0.17907,0.06643 -0.44766,0.287885 -0.26859,0.22145 -0.55957,0.819364 l -3.04407,5.979147 z"
       style="font-style:normal;font-variant:normal;font-weight:normal;font-stretch:normal;font-size:22.2636px;line-height:1.25;font-family:CheltenhamITCW01-BoldCn;-inkscape-font-specification:'CheltenhamITCW01-BoldCn, Normal';text-align:start;letter-spacing:0px;word-spacing:0px;writing-mode:lr-tb;text-anchor:start;fill:#d7172f;fill-opacity:1;stroke:#d7172f;stroke-width:0.556588;stroke-opacity:1"
       id="path942" />
  </g>
</svg>
