<?xml version="1.0" encoding="UTF-8" standalone="no"?>
<svg
   xmlns:dc="http://purl.org/dc/elements/1.1/"
   xmlns:cc="http://creativecommons.org/ns#"
   xmlns:rdf="http://www.w3.org/1999/02/22-rdf-syntax-ns#"
   xmlns:svg="http://www.w3.org/2000/svg"
   xmlns="http://www.w3.org/2000/svg"
   xmlns:sodipodi="http://sodipodi.sourceforge.net/DTD/sodipodi-0.dtd"
   xmlns:inkscape="http://www.inkscape.org/namespaces/inkscape"
   width="214.55186"
   height="30"
   viewBox="0 0 56.766846 7.9375001"
   version="1.1"
   id="svg1812"
   sodipodi:docname="clearly_broken.svg"
   inkscape:version="1.0.1 (0767f8302a, 2020-10-17)">
  <sodipodi:namedview
     pagecolor="#ffffff"
     bordercolor="#666666"
     borderopacity="1"
     objecttolerance="10"
     gridtolerance="10"
     guidetolerance="10"
     inkscape:pageopacity="0"
     inkscape:pageshadow="2"
     inkscape:window-width="1920"
     inkscape:window-height="973"
     id="namedview16"
     showgrid="false"
     inkscape:zoom="6.5625158"
     inkscape:cx="107.27593"
     inkscape:cy="15"
     inkscape:window-x="0"
     inkscape:window-y="27"
     inkscape:window-maximized="1"
     inkscape:current-layer="svg1812" />
  <defs
     id="defs1806" />
  <metadata
     id="metadata1809">
    <rdf:RDF>
      <cc:Work
         rdf:about="">
        <dc:format>image/svg+xml</dc:format>
        <dc:type
           rdf:resource="http://purl.org/dc/dcmitype/StillImage" />
        <dc:title />
      </cc:Work>
    </rdf:RDF>
  </metadata>
  <g
     id="layer1"
     transform="matrix(0.93749952,0,0,0.93749952,-11.157444,-55.389321)"
     inkscape:export-filename="/home/rob/git/drops/plugins/drops/artwork/clearly_broken.png"
     inkscape:export-xdpi="128"
     inkscape:export-ydpi="128">
    <g
       id="text4509"
       style="font-style:normal;font-weight:normal;font-size:10.5833px;line-height:1.25;font-family:sans-serif;letter-spacing:0px;word-spacing:0px;fill:#d7172f;fill-opacity:1;stroke:none;stroke-width:0.264583"
       aria-label="n"
       transform="matrix(0.50765054,0,0,0.50765054,4.9694972,96.038255)" />
    <path
       id="path1874"
       style="font-style:normal;font-variant:normal;font-weight:normal;font-stretch:normal;font-size:11.3021px;line-height:1.25;font-family:CheltenhamITCW01-BoldCn;-inkscape-font-specification:'CheltenhamITCW01-BoldCn, Normal';text-align:start;letter-spacing:0px;word-spacing:0px;writing-mode:lr-tb;text-anchor:start;fill:#eb5d28;fill-opacity:1;stroke:none;stroke-width:0.292307;stroke-opacity:1"
       d="m 53.295361,66.374013 q 0,0.244229 0.07052,0.33727 0.08228,0.08142 0.164569,0.116301 0.09404,0.02326 0.16457,0.04652 0.08229,0.02326 0.08229,0.151191 v 0.36053 h -2.680125 v -0.36053 q 0,-0.127931 0.07052,-0.151191 0.08229,-0.02326 0.16457,-0.04652 0.09404,-0.0349 0.164569,-0.116301 0.08229,-0.09304 0.08229,-0.33727 V 63.792149 L 50.0745,60.559004 q -0.164569,-0.3489 -0.317383,-0.488461 -0.14106,-0.15119 -0.258609,-0.20934 -0.117549,-0.06978 -0.176323,-0.09305 -0.07052,-0.03489 -0.07052,-0.151191 V 59.24481 h 3.068037 v 0.37216 q 0,0.104672 -0.09404,0.151191 -0.08228,0.03489 -0.199833,0.06978 -0.105794,0.03489 -0.199834,0.104671 -0.08229,0.05815 -0.08229,0.197709 0,0.09304 0.05877,0.279121 0.07052,0.17445 0.270362,0.581501 l 0.869867,1.791022 0.846354,-1.686352 q 0.164569,-0.3489 0.258609,-0.56987 0.09404,-0.232601 0.09404,-0.372163 0,-0.151189 -0.09404,-0.209339 -0.08229,-0.06978 -0.199835,-0.10467 -0.105794,-0.04652 -0.199833,-0.08142 -0.08229,-0.04652 -0.08229,-0.15119 V 59.24481 h 2.068868 v 0.32564 q 0,0.139561 -0.05877,0.174451 -0.05877,0.03489 -0.152814,0.08142 -0.09404,0.03489 -0.235099,0.15119 -0.14106,0.1163 -0.293873,0.43031 l -1.598671,3.140105 z m -8.201456,-6.117389 q 0,-0.244231 -0.08229,-0.325641 -0.08228,-0.09304 -0.188078,-0.1163 -0.105795,-0.03489 -0.18808,-0.05815 -0.08229,-0.02326 -0.08229,-0.15119 v -0.360531 h 2.797675 v 0.360531 q 0,0.12793 -0.08229,0.15119 -0.08228,0.02326 -0.188078,0.05815 -0.105794,0.02326 -0.18808,0.1163 -0.08228,0.08142 -0.08228,0.325641 v 6.524438 h 0.670031 q 0.458442,0 0.74056,-0.09305 0.282119,-0.09305 0.446688,-0.232601 0.164569,-0.15119 0.235098,-0.32564 0.08229,-0.18608 0.11755,-0.37216 0.0235,-0.12793 0.04702,-0.267491 0.0235,-0.13956 0.07052,-0.25586 0.04702,-0.127931 0.141061,-0.209341 0.09404,-0.08141 0.258608,-0.08141 h 0.282118 v 2.442303 h -5.266211 v -0.36053 q 0,-0.127932 0.08229,-0.151191 0.08228,-0.02326 0.18808,-0.04652 0.105795,-0.03489 0.188078,-0.1163 0.08229,-0.09304 0.08229,-0.337271 z m -6.731353,0 q 0,-0.244231 -0.08229,-0.325641 -0.08228,-0.09304 -0.188078,-0.1163 -0.105795,-0.03489 -0.18808,-0.05815 -0.08229,-0.02326 -0.08229,-0.15119 v -0.360531 h 3.185588 q 0.693541,0 1.151982,0.18608 0.458443,0.18608 0.728807,0.476831 0.282118,0.290751 0.399667,0.662911 0.11755,0.37216 0.11755,0.732691 0,0.37216 -0.11755,0.732691 -0.105794,0.348901 -0.352648,0.628021 -0.235098,0.26749 -0.599501,0.441941 -0.352648,0.16282 -0.846355,0.16282 h -0.18808 v 0.06978 q 0.258609,0.05815 0.423178,0.12793 0.176324,0.06978 0.293874,0.18608 0.117549,0.10467 0.199834,0.255861 0.08228,0.15119 0.188078,0.348901 l 1.104965,2.128293 q 0.117548,0.232599 0.235097,0.3489 0.11755,0.1163 0.21159,0.174451 0.09404,0.04652 0.152814,0.08141 0.05877,0.02326 0.05877,0.08142 v 0.314011 h -2.04536 L 40.537199,63.98987 q -0.105795,-0.22097 -0.211588,-0.30238 -0.09404,-0.08142 -0.246855,-0.09304 v 2.779574 q 0,0.244229 0.08228,0.33727 0.08229,0.08142 0.18808,0.116301 0.105794,0.02326 0.188079,0.04652 0.08228,0.02326 0.08228,0.151191 v 0.36053 h -2.797674 v -0.36053 q 0,-0.127932 0.08229,-0.151191 0.08229,-0.02326 0.188079,-0.04652 0.105795,-0.03489 0.188078,-0.116301 0.08229,-0.09305 0.08229,-0.33727 z m 1.716221,2.733054 q 0.387912,-0.01163 0.681786,-0.04652 0.293873,-0.03489 0.481952,-0.18608 0.199833,-0.162821 0.293874,-0.4652 0.105794,-0.314011 0.105794,-0.872252 0,-0.558241 -0.105794,-0.860621 -0.09404,-0.314011 -0.293874,-0.4652 -0.188079,-0.162821 -0.481952,-0.197712 -0.293874,-0.03489 -0.681786,-0.04652 z m -7.612974,2.256223 -0.199833,0.639651 q -0.04702,0.16282 -0.07052,0.30238 -0.01175,0.139561 -0.01175,0.197711 0,0.18608 0.09404,0.26749 0.105794,0.08142 0.211588,0.13956 0.11755,0.04652 0.211588,0.104669 0.105795,0.05815 0.105795,0.197712 v 0.29075 h -2.092378 v -0.29075 q 0,-0.139561 0.08229,-0.17445 0.07052,-0.04652 0.18808,-0.10467 0.117549,-0.06978 0.235099,-0.197712 0.129304,-0.139559 0.235098,-0.4652 l 1.657446,-5.431218 q 0.04702,-0.13956 0.04702,-0.26749 0,-0.232601 -0.08228,-0.383791 -0.07052,-0.16282 -0.07052,-0.2326 0,-0.05815 0.0235,-0.09305 0.02351,-0.03489 0.117549,-0.09305 l 0.881622,-0.47683 q 0.07052,-0.03489 0.117549,-0.05815 0.05877,-0.03489 0.152813,-0.03489 0.129305,0 0.188079,0.174451 l 2.445026,7.15246 q 0.07052,0.209341 0.176325,0.290751 0.105794,0.08141 0.211588,0.12793 0.105795,0.0349 0.176323,0.06978 0.07052,0.03489 0.07052,0.139562 v 0.348899 H 34.652229 V 67.15321 q 0,-0.174451 0.08229,-0.244231 0.08228,-0.06978 0.188078,-0.10467 0.105795,-0.04652 0.18808,-0.09305 0.08229,-0.04652 0.08229,-0.174451 0,-0.13956 -0.09404,-0.41868 l -0.305629,-0.872252 z m 2.080624,-0.721061 -0.940395,-2.965655 h -0.04702 l -0.858111,2.965655 z m -9.500007,-4.268216 q 0,-0.244231 -0.08228,-0.325641 -0.08228,-0.09304 -0.18808,-0.1163 -0.105795,-0.03489 -0.188079,-0.05815 -0.08228,-0.02326 -0.08228,-0.15119 v -0.360531 h 3.996678 q 0.364402,0 0.705296,-0.02326 0.340892,-0.02326 0.599501,-0.13956 v 2.407413 h -0.282118 q -0.211589,0 -0.305629,-0.1163 -0.09404,-0.127929 -0.152814,-0.30238 -0.05877,-0.18608 -0.117549,-0.395421 -0.04702,-0.22097 -0.16457,-0.395421 -0.117549,-0.186079 -0.352648,-0.302379 -0.223344,-0.127931 -0.623011,-0.127931 h -1.046199 v 2.988914 h 0.446689 q 0.282118,0 0.434933,-0.05815 0.152813,-0.06978 0.223342,-0.16282 0.07052,-0.09304 0.09404,-0.197711 0.03527,-0.116301 0.05877,-0.209341 0.03527,-0.09304 0.09404,-0.151189 0.07052,-0.06978 0.223343,-0.06978 h 0.329138 v 2.349263 h -0.329138 q -0.152814,0 -0.223343,-0.05815 -0.05877,-0.06978 -0.09404,-0.16282 -0.0235,-0.09305 -0.05877,-0.19771 -0.02351,-0.1163 -0.09404,-0.20934 -0.07052,-0.09305 -0.223342,-0.151191 -0.152815,-0.06978 -0.434933,-0.06978 h -0.446689 v 3.291293 h 1.140229 q 0.458443,0 0.740561,-0.09304 0.282118,-0.09305 0.446687,-0.232601 0.16457,-0.15119 0.235099,-0.32564 0.08228,-0.18608 0.117549,-0.37216 0.02351,-0.12793 0.04702,-0.267491 0.0235,-0.13956 0.07052,-0.25586 0.04702,-0.127931 0.141059,-0.20934 0.09404,-0.08141 0.258608,-0.08141 h 0.282119 v 2.442303 h -5.736407 v -0.36053 q 0,-0.127932 0.08228,-0.151191 0.08227,-0.02326 0.188078,-0.04652 0.105795,-0.0349 0.188079,-0.116301 0.08228,-0.09305 0.08228,-0.33727 z m -5.873058,0 q 0,-0.244231 -0.08229,-0.325641 -0.08227,-0.09304 -0.188079,-0.1163 -0.105794,-0.03489 -0.188079,-0.05815 -0.08229,-0.02326 -0.08229,-0.15119 v -0.360531 h 2.797674 v 0.360531 q 0,0.12793 -0.08229,0.15119 -0.08228,0.02326 -0.188078,0.05815 -0.105795,0.02326 -0.18808,0.1163 -0.08228,0.08142 -0.08228,0.325641 v 6.524438 h 0.670032 q 0.458443,0 0.740561,-0.09305 0.282119,-0.09305 0.446687,-0.232601 0.16457,-0.15119 0.235099,-0.32564 0.08228,-0.18608 0.117549,-0.37216 0.02351,-0.12793 0.04702,-0.267491 0.0235,-0.13956 0.07052,-0.25586 0.04702,-0.127931 0.14106,-0.209341 0.09404,-0.08141 0.258609,-0.08141 h 0.282117 v 2.442303 h -5.266209 v -0.36053 q 0,-0.127932 0.08229,-0.151191 0.08228,-0.02326 0.188079,-0.04652 0.105794,-0.03489 0.18808,-0.1163 0.08229,-0.09304 0.08229,-0.337271 z m -1.711996,1.802653 h -0.340894 q -0.176324,0 -0.270363,-0.174451 -0.09404,-0.17445 -0.176324,-0.441941 -0.07052,-0.26749 -0.141058,-0.56987 -0.07052,-0.302381 -0.21159,-0.569871 -0.129304,-0.267491 -0.340892,-0.441941 -0.21159,-0.174451 -0.564238,-0.174451 -0.481952,0 -0.799336,0.302382 -0.305627,0.290749 -0.493707,0.77921 -0.176323,0.488461 -0.246853,1.116482 -0.07052,0.628022 -0.07052,1.290931 0,0.721062 0.07052,1.383972 0.07052,0.651282 0.246853,1.163002 0.18808,0.500092 0.505462,0.802471 0.317383,0.302382 0.799335,0.302382 0.470198,0 0.752318,-0.232601 0.293872,-0.232601 0.458442,-0.546611 0.164568,-0.314011 0.223344,-0.65128 0.07052,-0.337271 0.09404,-0.546611 l 0.681787,0.43031 q -0.164569,1.081591 -0.740561,1.674722 -0.564237,0.593131 -1.469368,0.593131 -0.905128,0 -1.575159,-0.3489 -0.658277,-0.360531 -1.093209,-0.953662 -0.434933,-0.59313 -0.646523,-1.349082 -0.211588,-0.76758 -0.211588,-1.570051 0,-0.814101 0.199834,-1.570054 0.211589,-0.76758 0.611257,-1.360712 0.399668,-0.59313 0.987415,-0.95366 0.587746,-0.360532 1.351816,-0.360532 0.364403,0 0.646522,0.09305 0.293873,0.09304 0.493707,0.19771 0.211589,0.10467 0.340894,0.197709 0.129304,0.09304 0.188077,0.09304 0.11755,0 0.16457,-0.08142 0.05877,-0.08141 0.08228,-0.15119 h 0.493709 z m 52.278985,5.293795 h 0.100049 l 0.466883,-2.056507 q 0.0056,-0.0056 0.0056,-0.01112 0,-0.0056 0,-0.01668 0.0056,-0.01112 0.0056,-0.02779 0,-0.01668 0,-0.03891 0,-0.07225 -0.02778,-0.09449 -0.02779,-0.0278 -0.06114,-0.03891 -0.0056,-0.0056 -0.01113,-0.0056 -0.0056,0 -0.01113,-0.0056 -0.02778,-0.0056 -0.05005,-0.01668 -0.01665,-0.01668 -0.01665,-0.05002 0,-0.01668 0,-0.03335 0.0056,-0.02223 0.01113,-0.03891 0,-0.01668 0,-0.02779 0.0056,-0.01112 0.01113,-0.02223 0,-0.01668 0.0056,-0.0278 0.0056,-0.01668 0.0056,-0.0278 l 0.122278,-0.0056 q 0.0667,0.0056 0.166744,0 0.100049,-0.01112 0.205649,-0.02223 0.111164,-0.01668 0.211209,-0.03891 0.105604,-0.02779 0.172301,-0.05558 0.01113,-0.0056 0.02221,-0.0056 0.01113,-0.0056 0.02221,-0.01112 0.01113,0 0.02221,0 0.0167,-0.0056 0.02221,-0.0056 0.02778,0 0.02778,0.01668 0.0056,0.01112 0.0056,0.03891 0,0.0056 -0.0056,0.0278 -0.0056,0.02223 -0.01113,0.05002 -0.0056,0.02223 -0.01113,0.04446 -0.0056,0.02223 -0.0056,0.03335 l -0.02221,0.09449 q 0.166744,-0.138953 0.355724,-0.222326 0.194531,-0.08337 0.400185,-0.08337 0.02221,0 0.03892,0.0056 0.02221,0 0.04448,0 0.177857,0.0278 0.327926,0.166744 0.155631,0.133395 0.155631,0.372394 0,0.03335 -0.0056,0.07225 0,0.03335 -0.0056,0.0667 -0.0056,0.03335 -0.0167,0.0667 -0.0056,0.02779 -0.01113,0.06114 -0.0056,0.01668 -0.01113,0.03891 0,0.02223 -0.0056,0.03891 l -0.289021,1.295044 q -0.0056,0.03891 -0.01664,0.07225 -0.0056,0.03335 -0.0056,0.0667 0,0.03335 0.01665,0.06114 0.02221,0.0278 0.06114,0.0278 0.06114,0 0.11672,-0.04446 0.05559,-0.04446 0.09449,-0.09449 0.0056,-0.0056 0.01113,-0.01112 0.0056,-0.01112 0.01113,-0.01668 0.0056,0.01112 0.01113,0.03335 0.01113,0.02223 0.02221,0.04446 0,0 0,0.0056 0.0056,0 0.0056,0.0056 0.01113,0.0278 0.01665,0.05559 0.01113,0.02223 0.01113,0.03335 0,0.0278 -0.0167,0.06114 -0.01665,0.0278 -0.04449,0.06114 -0.05558,0.06114 -0.144512,0.116721 -0.08893,0.05559 -0.188975,0.08893 -0.04449,0.01668 -0.08894,0.02223 -0.04449,0.01112 -0.08337,0.01112 -0.03892,0 -0.08893,-0.0056 -0.04448,-0.0056 -0.08893,-0.02223 -0.144513,-0.03891 -0.261234,-0.144512 -0.116721,-0.105604 -0.116721,-0.277906 0,-0.04446 0.0056,-0.100049 0.01113,-0.06114 0.02221,-0.122278 0.0056,-0.01112 0.0056,-0.02223 0.0056,-0.01112 0.0056,-0.02223 0.0056,-0.03335 0.01113,-0.0667 0.01113,-0.03891 0.0167,-0.0667 l 0.277908,-1.194997 q 0.0056,-0.0056 0.0056,-0.01668 0.0056,-0.01668 0.0056,-0.03335 0.0056,-0.01112 0.0056,-0.02223 0.0056,-0.01668 0.0056,-0.0278 0.0056,-0.02223 0.0056,-0.04446 0.0056,-0.02223 0.0056,-0.03891 0,-0.09449 -0.05005,-0.138954 -0.04448,-0.05002 -0.127839,-0.05002 -0.03892,0 -0.08893,0.01668 -0.04448,0.01112 -0.08894,0.03335 -0.08337,0.03891 -0.161182,0.105604 -0.07782,0.0667 -0.138956,0.138953 -0.0056,0.0056 -0.01113,0.01668 -0.0056,0.0056 -0.01113,0.01112 l -0.455765,1.995368 h -0.833718 z m -0.389248,-0.636771 0.133395,0.166744 q -0.144508,0.227883 -0.372393,0.366836 -0.222323,0.138953 -0.466882,0.17786 -0.05558,0.01112 -0.111164,0.01668 -0.05005,0.0056 -0.105604,0.0056 -0.389066,0 -0.678093,-0.255675 -0.28902,-0.261231 -0.28902,-0.761462 0,-0.733673 0.478,-1.250579 0.483557,-0.516906 1.089391,-0.516906 0.03335,0 0.0667,0.0056 0.03892,0 0.07225,0.0056 0.200092,0.03335 0.36128,0.172301 0.166743,0.133396 0.166743,0.41686 0,0.383511 -0.366836,0.68365 -0.366837,0.29458 -1.04493,0.29458 -0.0056,0 -0.01113,0 -0.0056,-0.0056 -0.0167,-0.0056 -0.0056,0 -0.0167,0 -0.0056,-0.0056 -0.01113,-0.0056 l -0.01113,0.216767 q 0,0.277907 0.100049,0.483557 0.100049,0.200093 0.366837,0.200093 0.200093,0 0.366836,-0.122279 0.166744,-0.122279 0.300139,-0.289023 z m -1.089391,-0.744789 q 0.383511,0 0.58916,-0.172301 0.205654,-0.172303 0.289025,-0.372395 0.02778,-0.07782 0.03892,-0.15007 0.01665,-0.07782 0.01665,-0.144511 0,-0.09449 -0.04449,-0.166744 -0.03892,-0.07782 -0.122278,-0.07782 -0.183418,0 -0.350162,0.205651 -0.166743,0.200093 -0.277907,0.444649 -0.05559,0.116722 -0.09448,0.233442 -0.03335,0.11672 -0.04449,0.20565 z m -3.525936,1.378416 0.789252,-3.41269 q 0,-0.01112 0,-0.02223 0.0056,-0.01112 0.0056,-0.02223 0,-0.01112 0,-0.02223 0.0056,-0.01112 0.0056,-0.02779 0,-0.07782 -0.03335,-0.105605 -0.02779,-0.0278 -0.06114,-0.03335 -0.0056,0 -0.01113,0 -0.0056,-0.0056 -0.0056,-0.0056 -0.03335,-0.0056 -0.05559,-0.01668 -0.02221,-0.01668 -0.02221,-0.06114 0,-0.02223 0,-0.04446 0.0056,-0.02223 0.01113,-0.04446 0.0056,-0.0056 0.0056,-0.01112 0,-0.01112 0.0056,-0.01668 0,-0.01668 0.0056,-0.03335 0.0056,-0.01668 0.0056,-0.0278 l 1.011576,-0.03891 -0.32237,1.389532 q 0.15007,-0.05559 0.305695,-0.08893 0.161189,-0.03891 0.327932,-0.03891 0.227885,0 0.405741,0.127837 0.183418,0.127836 0.183418,0.439092 0,0.272348 -0.1723,0.472441 -0.1723,0.200091 -0.377954,0.327929 -0.05005,0.0278 -0.100049,0.05558 -0.05005,0.02223 -0.09448,0.04446 0.02221,0.05558 0.05557,0.172302 0.03892,0.11672 0.08337,0.238999 0.06114,0.172302 0.133395,0.316813 0.07782,0.138953 0.161187,0.138953 0.04448,0 0.0667,-0.01668 0.02778,-0.01668 0.05005,-0.03891 0.01113,-0.01668 0.02221,-0.0278 0.0167,-0.01668 0.02778,-0.0278 l 0.05559,0.09449 q 0,0.01112 0,0.02223 0.0056,0.0056 0.01113,0.01668 0.0056,0.0056 0.0056,0.01668 0.0056,0.0056 0.0056,0.01668 0,0.03335 -0.02221,0.07225 -0.01664,0.03891 -0.05558,0.07782 -0.0667,0.08337 -0.188979,0.150071 -0.116721,0.0667 -0.238999,0.08893 -0.02221,0 -0.04448,0 -0.01665,0.0056 -0.03892,0.0056 -0.322369,0 -0.455764,-0.233442 -0.127839,-0.233441 -0.222329,-0.56137 -0.02778,-0.08337 -0.05005,-0.166744 -0.02221,-0.08337 -0.05,-0.166745 -0.0056,-0.01112 -0.01113,-0.01668 0,-0.01112 0,-0.01668 l -0.111165,-0.0056 -0.244559,1.067161 h -0.755904 z m 1.256135,-2.212135 -0.200092,0.8893 q 0.02779,0.0056 0.05558,0 0.02778,-0.0056 0.05005,-0.01112 0.255672,-0.06114 0.461321,-0.277907 0.211211,-0.216766 0.211211,-0.539138 0,-0.111162 -0.06114,-0.166743 -0.05558,-0.05559 -0.150069,-0.05559 -0.03335,0 -0.08337,0.01668 -0.04448,0.01112 -0.08893,0.03335 -0.03335,0.01668 -0.06114,0.03335 -0.02778,0.01112 -0.05005,0.0278 -0.02778,0.01668 -0.05,0.03335 -0.0167,0.01112 -0.03335,0.02223 z m -2.478611,-0.476295 q 0.433533,0.0056 0.761464,0.316813 0.327926,0.311254 0.327926,0.85595 0,0.705883 -0.422415,1.161649 -0.422417,0.455767 -1.033812,0.455767 -0.433534,0 -0.761465,-0.316813 -0.327926,-0.316813 -0.327926,-0.855952 0,-0.71144 0.439089,-1.161649 0.444653,-0.450208 1.017139,-0.450208 z m 0.05557,0.222324 q -0.205649,0.0056 -0.361275,0.305696 -0.155631,0.30014 -0.250115,0.655859 -0.0667,0.250117 -0.100049,0.478 -0.03335,0.227883 -0.03335,0.355719 0,0.04446 0,0.100049 0.0056,0.05002 0.0167,0.100049 0.0167,0.133396 0.07225,0.239 0.06114,0.105605 0.177861,0.105605 0.211206,0 0.366837,-0.300139 0.155626,-0.30014 0.250116,-0.655859 0.06113,-0.250116 0.09448,-0.477999 0.03335,-0.227883 0.03335,-0.35572 0,-0.04446 -0.0056,-0.09449 0,-0.05559 -0.0056,-0.105605 -0.0167,-0.133394 -0.07226,-0.238999 -0.05557,-0.105605 -0.183418,-0.105605 z m -2.724605,1.500694 -0.26679,0.967115 H 59.85492 l 0.200093,-0.867068 q 0.0167,-0.0667 0.03335,-0.161186 0.02221,-0.09449 0.04449,-0.200093 0.0056,-0.04446 0.01113,-0.08893 0.01113,-0.05002 0.02221,-0.09449 0.02778,-0.155627 0.04449,-0.300139 0.02221,-0.150069 0.02221,-0.250116 0,-0.127836 -0.03892,-0.150069 -0.03892,-0.0278 -0.08337,-0.03335 0,0 -0.0056,0 0,0 0,0 -0.04449,0 -0.07782,-0.01112 -0.03335,-0.01668 -0.03892,-0.09449 l -0.03335,-0.150069 q 0.183418,-0.01112 0.322369,-0.05002 0.144514,-0.03891 0.24456,-0.08337 0.133395,-0.05558 0.205649,-0.100049 0.07782,-0.05002 0.105602,-0.05002 0.03335,0 0.04449,0.06114 0.01664,0.06114 0.02779,0.127836 0.0056,0.0667 0.0056,0.12228 0,0.05002 0,0.0667 0,0.166744 -0.0167,0.333488 -0.01664,0.166743 -0.05,0.333487 l 0.02221,-0.0056 q 0.03892,-0.07782 0.08337,-0.17786 0.04449,-0.105605 0.09449,-0.21121 0.122277,-0.244557 0.283464,-0.44465 0.166744,-0.20565 0.394629,-0.20565 0.133395,0 0.244555,0.111163 0.111163,0.105604 0.111163,0.266789 0,0.188977 -0.11672,0.327929 -0.111165,0.138955 -0.272347,0.138955 -0.07782,0 -0.133395,-0.0278 -0.05559,-0.03335 -0.09449,-0.07225 -0.03892,-0.03891 -0.0667,-0.0667 -0.02221,-0.03335 -0.05,-0.03335 -0.03892,0 -0.100049,0.100049 -0.06114,0.09448 -0.122276,0.23344 -0.02779,0.05558 -0.05559,0.116721 -0.02221,0.06114 -0.04449,0.116721 -0.06114,0.155628 -0.111164,0.300138 -0.04448,0.138954 -0.0667,0.211209 z m -2.320953,-2.979155 -0.311256,1.345067 q 0.0667,-0.01112 0.127838,-0.0278 0.0667,-0.01668 0.133395,-0.0278 0.0667,-0.01112 0.127838,-0.01668 0.0667,-0.01112 0.133396,-0.01112 0.350162,0 0.600277,0.238999 0.255673,0.233441 0.255673,0.694766 0,0.722556 -0.494676,1.289485 -0.489113,0.561371 -1.272809,0.561371 -0.0667,0 -0.161187,-0.01112 -0.08893,-0.0056 -0.188974,-0.03335 -0.177862,-0.05002 -0.327929,-0.166744 -0.144512,-0.122279 -0.144512,-0.372394 0,-0.04446 0.0056,-0.08337 0.0056,-0.03891 0.01668,-0.07782 0,-0.02223 0.0056,-0.03891 0.0056,-0.02223 0.01112,-0.03891 0.0056,-0.02223 0.0056,-0.03891 0.0056,-0.02223 0.01112,-0.04446 l 0.589161,-2.60676 q 0.0056,-0.01112 0.0056,-0.02223 0.0056,-0.01112 0.01113,-0.02223 0,-0.01112 0,-0.02223 0.0056,-0.01112 0.0056,-0.0278 0,-0.07782 -0.03335,-0.105604 -0.02778,-0.02779 -0.06114,-0.03891 -0.0056,0 -0.01113,0 -0.0056,-0.0056 -0.01113,-0.0056 -0.02778,-0.0056 -0.05,-0.01668 -0.02221,-0.01668 -0.02221,-0.05559 0,-0.02223 0,-0.04446 0.0056,-0.02223 0.01113,-0.04446 0,-0.02223 0.0056,-0.04446 0.01113,-0.02223 0.0167,-0.04446 l 1.011581,-0.03891 z m -0.400185,1.723019 -0.377954,1.656322 q 0,0.02223 -0.0056,0.03891 -0.0056,0.01668 -0.0056,0.03891 -0.0056,0.0056 -0.0056,0.01668 0,0.0056 -0.0056,0.01668 -0.0056,0.0278 -0.01113,0.05559 0,0.02223 0,0.05002 0,0.11672 0.05559,0.172301 0.05559,0.05002 0.144508,0.05002 0.266791,0 0.461327,-0.305698 0.194536,-0.311255 0.300138,-0.678092 0.05559,-0.200091 0.08337,-0.394626 0.03335,-0.194535 0.03335,-0.333487 0,-0.02223 -0.0056,-0.04446 0,-0.0278 0,-0.05558 -0.0167,-0.155628 -0.09449,-0.283465 -0.07782,-0.127836 -0.222324,-0.127836 -0.03335,0 -0.07782,0.01112 -0.03892,0.01112 -0.08337,0.0278 -0.02778,0.01112 -0.06114,0.02779 -0.02778,0.01112 -0.05558,0.0278 -0.0167,0.01112 -0.03335,0.02223 -0.0167,0.0056 -0.03335,0.01668 z" />
  </g>
</svg>
