<?xml version="1.0" encoding="UTF-8" standalone="no"?>
<svg
   xmlns:dc="http://purl.org/dc/elements/1.1/"
   xmlns:cc="http://creativecommons.org/ns#"
   xmlns:rdf="http://www.w3.org/1999/02/22-rdf-syntax-ns#"
   xmlns:svg="http://www.w3.org/2000/svg"
   xmlns="http://www.w3.org/2000/svg"
   width="221.69121"
   height="50"
   viewBox="0 0 221.69123 50"
   version="1.1"
   id="svg632">
  <defs
     id="defs626" />
  <metadata
     id="metadata629">
    <rdf:RDF>
      <cc:Work
         rdf:about="">
        <dc:format>image/svg+xml</dc:format>
        <dc:type
           rdf:resource="http://purl.org/dc/dcmitype/StillImage" />
        <dc:title></dc:title>
      </cc:Work>
    </rdf:RDF>
  </metadata>
  <g
     id="layer1"
     transform="translate(-38.234167,-33.834498)">
    <g
       aria-label="DR   PS"
       id="text1410"
       style="font-size:10.5833px;line-height:1.25;font-family:Roboto;-inkscape-font-specification:Roboto;letter-spacing:0px;word-spacing:0px;fill:#2a2a2a;fill-opacity:1;stroke-width:0.350091"
       transform="matrix(0.77190055,0,0,0.77190055,-81.316763,-49.4501)" />
    <path
       id="path1412"
       style="fill:#eb5d28;fill-opacity:1;stroke:none;stroke-width:4.27893;stroke-linecap:round"
       d="m 148.07091,34.660154 c -0.31111,5.18e-4 -0.6228,0.0064 -0.93367,0.01929 -13.37946,0.546553 -23.83702,11.74159 -23.47179,25.127185 0.3654,13.38438 11.41639,23.991858 24.80451,23.809273 13.38748,-0.183671 24.14391,-11.088155 24.14431,-24.47686 l -0.0386,-1.332728 C 171.86628,44.798538 161.09394,34.624836 148.06685,34.659633 Z m -22.47305,25.34554 h 11.65065 l -2.74151,-19.327445 27.81482,0.0064 -3.34074,19.319233 h 12.01666 l -22.8628,22.097995 z m 122.59621,10.225828 q 0,-2.306112 -1.60424,-3.810163 -1.57086,-1.503993 -6.95191,-3.275421 -5.38102,-1.804803 -9.0575,-3.910415 -3.64303,-2.139052 -5.61497,-4.946529 -1.93847,-2.807486 -1.93847,-6.784706 0,-6.250025 5.31414,-9.959941 5.31415,-3.709849 13.40243,-3.709849 7.98795,0 13.06816,4.110904 5.11366,4.11098 5.11366,10.995997 h -11.66444 q 0,-2.740605 -1.70454,-4.478595 -1.6711,-1.771361 -5.08023,-1.771361 -3.34224,0 -5.04677,1.470553 -1.70454,1.437177 -1.70454,3.442536 0,2.172427 2.37298,3.676478 2.37298,1.470551 6.55082,2.807484 7.75396,2.473236 11.99861,6.216585 4.27811,3.709849 4.27811,9.859629 0,6.584207 -4.9131,10.126998 -4.91309,3.542792 -13.06816,3.542792 -5.01341,0 -9.69258,-1.70455 -4.67908,-1.704557 -7.68712,-5.347593 -3.00804,-3.643036 -3.00804,-9.391753 h 11.76473 q 0,4.278097 2.23928,5.949214 2.23932,1.671109 6.38373,1.671109 3.34222,0 4.7794,-1.403738 1.47056,-1.40374 1.47056,-3.375665 z m -57.98796,-3.576165 v 16.510649 h -11.7313 V 34.502932 h 19.41844 q 8.75669,0 13.80347,4.67915 5.04684,4.679103 5.04684,11.831557 0,7.085515 -5.04684,11.363621 -5.04678,4.278097 -13.80347,4.278097 z m 0,-23.094925 v 14.037414 h 7.68714 q 3.67648,0 5.31422,-1.838235 1.67111,-1.838241 1.67111,-4.679158 0,-2.974613 -1.67111,-5.247349 -1.63774,-2.272672 -5.31422,-2.272672 z m -81.08288,39.605574 -8.58956,-17.17915 h -6.316842 v 17.17915 H 82.485526 V 34.502932 h 19.151064 q 8.42245,0 13.40242,3.776721 5.01335,3.743289 5.01335,10.929116 0,5.61503 -2.33955,8.823572 -2.30618,3.20855 -6.14978,5.013344 l 10.12706,19.619011 v 0.501226 z M 94.216828,43.560432 v 13.368982 h 7.419762 q 6.68446,0 6.68446,-6.65108 0,-6.617649 -6.4839,-6.717902 z M 38.234167,83.166006 V 34.502932 h 15.641717 q 6.584216,0 11.664431,2.974602 5.113656,2.94117 7.988013,8.221884 2.907731,5.247348 2.907731,12.132367 v 2.038799 q 0,10.260682 -6.283465,16.778086 -6.249956,6.483963 -16.042772,6.517336 z M 49.965478,43.560432 v 30.581503 h 4.07753 q 9.82619,0 10.394378,-12.667114 l 0.03268,-3.709849 q 0,-13.903787 -10.160438,-14.20454 z" />
  </g>
</svg>
