<?xml version="1.0" encoding="UTF-8" standalone="no"?>
<svg
   xmlns:dc="http://purl.org/dc/elements/1.1/"
   xmlns:cc="http://creativecommons.org/ns#"
   xmlns:rdf="http://www.w3.org/1999/02/22-rdf-syntax-ns#"
   xmlns:svg="http://www.w3.org/2000/svg"
   xmlns="http://www.w3.org/2000/svg"
   width="205.34"
   height="129.26335"
   version="1.1"
   id="svg4">
  <metadata
     id="metadata10">
    <rdf:RDF>
      <cc:Work
         rdf:about="">
        <dc:format>image/svg+xml</dc:format>
        <dc:type
           rdf:resource="http://purl.org/dc/dcmitype/StillImage" />
        <dc:title></dc:title>
      </cc:Work>
    </rdf:RDF>
  </metadata>
  <defs
     id="defs8" />
  <path
     d="m 0.001,35.46334 a 4.004,4.004 0 0 1 4.01,-3.995 h 50.981 c 2.214,0 5.28,-1.248 6.86,-2.802 l 17.551,-17.253 c 18.907,-18.5839997 42.923,-13.9869997 53.634,10.248 l 34.746,78.62 c 2.68,6.065 10.217,10.982 16.845,10.982 h 16.718 a 3.996,3.996 0 0 1 3.994,3.995 v 10.01 a 4,4 0 0 1 -4.007,3.995 h -24.7 c -8.835,0 -19.03,-6.489 -22.775,-14.497 l -40.444,-86.506 c -3.744,-8.007 -12.11,-9.714 -18.687,-3.815 l -20.267,18.179 c -3.291,2.951 -9.545,5.344 -13.95,5.344 H 4.004 A 4.005,4.005 0 0 1 0,43.97434 v -8.512 z"
     fill-rule="evenodd"
     id="path2"
     style="fill:#eb5d28;stroke:none" />
</svg>
