<?xml version="1.0" encoding="UTF-8" standalone="no"?>
<svg
   xmlns:dc="http://purl.org/dc/elements/1.1/"
   xmlns:cc="http://creativecommons.org/ns#"
   xmlns:rdf="http://www.w3.org/1999/02/22-rdf-syntax-ns#"
   xmlns:svg="http://www.w3.org/2000/svg"
   xmlns="http://www.w3.org/2000/svg"
   width="205.339"
   height="128.69623"
   version="1.1"
   id="svg4">
  <metadata
     id="metadata10">
    <rdf:RDF>
      <cc:Work
         rdf:about="">
        <dc:format>image/svg+xml</dc:format>
        <dc:type
           rdf:resource="http://purl.org/dc/dcmitype/StillImage" />
        <dc:title></dc:title>
      </cc:Work>
    </rdf:RDF>
  </metadata>
  <defs
     id="defs8" />
  <path
     d="m 205.339,34.896228 a 4.004,4.004 0 0 0 -4.01,-3.995 h -50.981 c -2.215,0 -5.212,-1.327 -6.693,-2.964 l -13.731,-15.161 c -17.795,-19.6499996 -41.628,-16.2559996 -53.234,7.58 l -38.736,79.557 C 35.055,105.86823 27.34,110.69623 20.712,110.69623 H 3.994 A 3.996,3.996 0 0 0 0,114.69123 v 10.01 a 4,4 0 0 0 4.007,3.995 h 24.7 c 8.835,0 19.208,-6.395 23.174,-14.293 L 95.526,27.489228 c 3.964,-7.894 12.233,-9.228 18.473,-2.974 l 17.184,17.219 c 3.123,3.13 9.242,5.667 13.647,5.667 h 56.505 a 4.005,4.005 0 0 0 4.004,-3.994 v -8.512 z"
     fill-rule="evenodd"
     id="path2"
     style="fill:#eb5d28;stroke:none" />
</svg>
