<?xml version="1.0" encoding="UTF-8" standalone="no"?>
<svg
   xmlns:dc="http://purl.org/dc/elements/1.1/"
   xmlns:cc="http://creativecommons.org/ns#"
   xmlns:rdf="http://www.w3.org/1999/02/22-rdf-syntax-ns#"
   xmlns:svg="http://www.w3.org/2000/svg"
   xmlns="http://www.w3.org/2000/svg"
   width="35"
   height="35"
   viewBox="0 0 34.999981 35"
   version="1.1"
   id="svg661">
  <defs
     id="defs655" />
  <metadata
     id="metadata658">
    <rdf:RDF>
      <cc:Work
         rdf:about="">
        <dc:format>image/svg+xml</dc:format>
        <dc:type
           rdf:resource="http://purl.org/dc/dcmitype/StillImage" />
        <dc:title></dc:title>
      </cc:Work>
    </rdf:RDF>
  </metadata>
  <g
     id="layer1"
     transform="translate(-95.911458,-94.399552)">
    <path
       id="path859"
       style="fill:#ccc5b9;stroke-width:7.065;stroke-dashoffset:47.622"
       d="m 130.91146,111.89955 a 17.49999,17.499997 0 0 1 -17.5,17.5 17.49999,17.499997 0 0 1 -17.500002,-17.5 17.49999,17.499997 0 0 1 17.500002,-17.499998 17.49999,17.499997 0 0 1 17.5,17.499998 z m -17.5,-17.499987 h 17.5 v 34.999987 h -17.5 z" />
    <path
       d="m 118.87688,103.65207 0.0862,0.0745 3.57679,3.58978 c 0.3016,0.30274 0.32693,0.77845 0.0744,1.11002 l -0.0744,0.0869 -3.57679,3.58986 c -0.32958,0.33034 -0.8631,0.33034 -1.19237,0 -0.30123,-0.30274 -0.32693,-0.77846 -0.0745,-1.11 l 0.0745,-0.0862 2.05878,-2.06867 h -7.73487 c -3.10403,0 -5.62043,2.5255 -5.62043,5.64089 0,1.36467 0.4828,2.61614 1.28639,3.59175 l 0.22451,0.25928 c 0.10998,0.14362 0.17575,0.32201 0.17575,0.5167 0,0.46711 -0.37758,0.84612 -0.84303,0.84612 -0.20863,0 -0.39915,-0.0741 -0.54656,-0.20107 l -0.0828,-0.0741 c -1.1814,-1.30273 -1.90159,-3.03428 -1.90159,-4.93456 0,-3.96185 3.13058,-7.18998 7.04453,-7.32846 l 0.26154,-0.004 h 7.89221 l -2.21612,-2.22209 c -0.30161,-0.30274 -0.32693,-0.7784 -0.0745,-1.1099 l 0.0745,-0.0862 c 0.30236,-0.30274 0.77514,-0.32806 1.10596,-0.0741 z"
       id="🎨-Color-6"
       style="display:inline;fill:#252422;fill-opacity:1;fill-rule:nonzero;stroke:none;stroke-width:2.19108" />
  </g>
</svg>
