<?xml version="1.0" encoding="UTF-8" standalone="no"?>
<svg
   xmlns:dc="http://purl.org/dc/elements/1.1/"
   xmlns:cc="http://creativecommons.org/ns#"
   xmlns:rdf="http://www.w3.org/1999/02/22-rdf-syntax-ns#"
   xmlns:svg="http://www.w3.org/2000/svg"
   xmlns="http://www.w3.org/2000/svg"
   width="34.999996"
   height="35"
   viewBox="0 0 34.999996 35.000002"
   version="1.1"
   id="svg1558">
  <defs
     id="defs1552" />
  <metadata
     id="metadata1555">
    <rdf:RDF>
      <cc:Work
         rdf:about="">
        <dc:format>image/svg+xml</dc:format>
        <dc:type
           rdf:resource="http://purl.org/dc/dcmitype/StillImage" />
        <dc:title></dc:title>
      </cc:Work>
    </rdf:RDF>
  </metadata>
  <g
     id="layer1"
     transform="matrix(3.7795274,0,0,3.7795274,-345.35713,-196.78571)">
    <path
       id="path1538"
       style="fill:#ccc5b9;stroke-width:1.86928;stroke-dashoffset:47.622"
       d="m 91.375744,56.696429 a 4.6302083,4.6302083 0 0 1 4.630208,-4.630209 4.6302083,4.6302083 0 0 1 4.630208,4.630209 4.6302083,4.6302083 0 0 1 -4.630208,4.630208 4.6302083,4.6302083 0 0 1 -4.630208,-4.630208 z m 4.630208,4.630208 H 91.375744 V 52.06622 h 4.630208 z" />
    <path
       d="m 94.255951,59.335944 -0.02281,-0.01971 -0.946362,-0.949798 c -0.0798,-0.0801 -0.0865,-0.205963 -0.01971,-0.293691 l 0.01971,-0.02299 0.946362,-0.949819 c 0.0872,-0.0874 0.228359,-0.0874 0.315478,0 0.0797,0.0801 0.0865,0.20597 0.01971,0.29369 l -0.01971,0.02281 -0.544719,0.547338 h 2.046518 c 0.821272,0 1.487072,-0.668208 1.487072,-1.492488 0,-0.361072 -0.127741,-0.69219 -0.34036,-0.95032 l -0.0594,-0.0686 c -0.0291,-0.038 -0.0465,-0.0852 -0.0465,-0.13671 0,-0.12359 0.0999,-0.22387 0.223052,-0.22387 0.0552,0 0.105608,0.01961 0.14461,0.0532 l 0.02191,0.01961 c 0.312579,0.344681 0.503129,0.80282 0.503129,1.305611 0,1.048239 -0.828299,1.902348 -1.86387,1.938988 l -0.0692,0.0011 h -2.08815 l 0.586349,0.587928 c 0.0798,0.0801 0.0865,0.205952 0.01971,0.293661 l -0.01971,0.02281 c -0.08,0.0801 -0.205089,0.0868 -0.292619,0.01961 z"
       id="path1540"
       style="display:inline;fill:#252422;fill-opacity:1;fill-rule:nonzero;stroke:none;stroke-width:0.579723" />
  </g>
</svg>
