<?xml version="1.0" encoding="UTF-8" standalone="no"?>
<svg
   xmlns:dc="http://purl.org/dc/elements/1.1/"
   xmlns:cc="http://creativecommons.org/ns#"
   xmlns:rdf="http://www.w3.org/1999/02/22-rdf-syntax-ns#"
   xmlns:svg="http://www.w3.org/2000/svg"
   xmlns="http://www.w3.org/2000/svg"
   xmlns:sodipodi="http://sodipodi.sourceforge.net/DTD/sodipodi-0.dtd"
   xmlns:inkscape="http://www.inkscape.org/namespaces/inkscape"
   width="32.799763"
   height="31.134995"
   viewBox="0 0 32.799763 31.134994"
   version="1.1"
   id="svg645"
   sodipodi:docname="zoom_fit_all.svg"
   inkscape:version="1.0.1 (0767f8302a, 2020-10-17)">
  <sodipodi:namedview
     pagecolor="#ffffff"
     bordercolor="#666666"
     borderopacity="1"
     objecttolerance="10"
     gridtolerance="10"
     guidetolerance="10"
     inkscape:pageopacity="0"
     inkscape:pageshadow="2"
     inkscape:window-width="1920"
     inkscape:window-height="973"
     id="namedview13"
     showgrid="false"
     inkscape:zoom="5.9498967"
     inkscape:cx="28.218688"
     inkscape:cy="43.689676"
     inkscape:window-x="0"
     inkscape:window-y="27"
     inkscape:window-maximized="1"
     inkscape:current-layer="svg645" />
  <defs
     id="defs639" />
  <metadata
     id="metadata642">
    <rdf:RDF>
      <cc:Work
         rdf:about="">
        <dc:format>image/svg+xml</dc:format>
        <dc:type
           rdf:resource="http://purl.org/dc/dcmitype/StillImage" />
        <dc:title />
      </cc:Work>
    </rdf:RDF>
  </metadata>
  <g
     style="fill:#4e4e4e;fill-opacity:1;stroke-width:1.86837"
     id="g3486"
     transform="matrix(1.8222091,0,0,1.7297219,-5.46663,-5.189166)">
    <path
       d="M 5.25,3 C 4.00736,3 3,4.00736 3,5.25 v 13.5 C 3,19.9926 4.00736,21 5.25,21 h 13.5 C 19.9926,21 21,19.9926 21,18.75 V 5.25 C 21,4.00736 19.9926,3 18.75,3 Z M 6,6.75 C 6,6.33579 6.33579,6 6.75,6 h 2.5 C 9.66421,6 10,6.33579 10,6.75 10,7.16421 9.66421,7.5 9.25,7.5 H 8.56066 l 1.71964,1.71967 c 0.2929,0.29289 0.2929,0.76777 0,1.06063 -0.29286,0.2929 -0.76774,0.2929 -1.06063,0 L 7.5,8.56066 V 9.25115 C 7.5,9.66536 7.16421,10.0012 6.75,10.0012 6.33579,10.0012 6,9.66536 6,9.25115 Z m 11.7808,11.0314 c -0.1406,0.1407 -0.3314,0.2197 -0.5303,0.2197 h -2.5 c -0.4142,0 -0.75,-0.3358 -0.75,-0.75 0,-0.4142 0.3358,-0.75 0.75,-0.75 H 15.44 l -1.7205,-1.7208 c -0.2929,-0.2929 -0.2928,-0.7678 10e-5,-1.0607 0.2929,-0.2928 0.7678,-0.2928 1.0607,10e-5 l 1.7202,1.7205 v -0.6903 c 0,-0.4142 0.3358,-0.75 0.75,-0.75 0.4142,0 0.75,0.3358 0.75,0.75 v 2.5012 c 0,0.1989 -0.079,0.3897 -0.2197,0.5303 z M 18.0005,6.75061 v 2.5 c 0,0.41421 -0.3358,0.74999 -0.75,0.74999 -0.4142,0 -0.75,-0.33578 -0.75,-0.74999 V 8.56075 l -1.7204,1.71965 c -0.293,0.2929 -0.7678,0.2928 -1.0607,-2e-4 -0.2928,-0.29293 -0.2927,-0.7678 3e-4,-1.06064 l 1.7196,-1.71895 h -0.69 c -0.4142,0 -0.75,-0.33579 -0.75,-0.75 0,-0.41421 0.3358,-0.75 0.75,-0.75 h 2.5012 c 0.1989,0 0.3897,0.07902 0.5303,0.21967 0.1407,0.14065 0.2197,0.33142 0.2197,0.53033 z M 6.21967,17.7808 C 6.07902,17.6402 6,17.4494 6,17.2505 v -2.5 c 0,-0.4142 0.33579,-0.75 0.75,-0.75 0.41421,0 0.75,0.3358 0.75,0.75 v 0.6891 l 1.71963,-1.7199 c 0.29287,-0.2929 0.76774,-0.2929 1.06067,-10e-5 0.2929,0.2929 0.2929,0.7678 10e-5,1.0607 l -1.71995,1.7202 h 0.6907 c 0.41422,0 0.75005,0.3358 0.75005,0.75 0,0.4142 -0.33584,0.75 -0.75005,0.75 H 6.75 c -0.19891,0 -0.38968,-0.079 -0.53033,-0.2197 z"
       fill="#212121"
       id="path3475"
       style="fill:#4e4e4e;fill-opacity:1;stroke-width:3.25374" />
  </g>
</svg>
