<?xml version="1.0" encoding="UTF-8" standalone="no"?>
<svg
   xmlns:dc="http://purl.org/dc/elements/1.1/"
   xmlns:cc="http://creativecommons.org/ns#"
   xmlns:rdf="http://www.w3.org/1999/02/22-rdf-syntax-ns#"
   xmlns:svg="http://www.w3.org/2000/svg"
   xmlns="http://www.w3.org/2000/svg"
   xmlns:sodipodi="http://sodipodi.sourceforge.net/DTD/sodipodi-0.dtd"
   xmlns:inkscape="http://www.inkscape.org/namespaces/inkscape"
   width="33.711514"
   height="31.999989"
   viewBox="0 0 33.711513 31.999988"
   version="1.1"
   id="svg645"
   sodipodi:docname="zoom_out.svg"
   inkscape:version="1.0.1 (0767f8302a, 2020-10-17)">
  <sodipodi:namedview
     pagecolor="#ffffff"
     bordercolor="#666666"
     borderopacity="1"
     objecttolerance="10"
     gridtolerance="10"
     guidetolerance="10"
     inkscape:pageopacity="0"
     inkscape:pageshadow="2"
     inkscape:window-width="1920"
     inkscape:window-height="973"
     id="namedview13"
     showgrid="false"
     inkscape:zoom="2.8945323"
     inkscape:cx="93.662357"
     inkscape:cy="73.560571"
     inkscape:window-x="0"
     inkscape:window-y="27"
     inkscape:window-maximized="1"
     inkscape:current-layer="svg645" />
  <defs
     id="defs639" />
  <metadata
     id="metadata642">
    <rdf:RDF>
      <cc:Work
         rdf:about="">
        <dc:format>image/svg+xml</dc:format>
        <dc:type
           rdf:resource="http://purl.org/dc/dcmitype/StillImage" />
        <dc:title />
      </cc:Work>
    </rdf:RDF>
  </metadata>
  <g
     id="g3435"
     transform="matrix(12.867656,0,0,12.214556,-1715.3096,-726.79565)"
     style="fill:#4e4e4e;fill-opacity:1">
    <g
       style="display:inline;opacity:1;fill:#4e4e4e;fill-opacity:1;stroke-width:9.40136"
       id="g3400"
       transform="matrix(0.15729991,0,0,0.15729991,144.5341,58.924756)" />
  </g>
  <path
     d="m 13.667782,0 c 7.547715,0 13.666483,5.808266 13.666483,12.972842 0,2.95805 -1.043504,5.68503 -2.798979,7.86743 v 0 l 8.642926,8.20677 c 0.711067,0.67529 0.711067,1.77082 0,2.44614 -0.656159,0.62376 -1.690371,0.67174 -2.405272,0.14396 v 0 l -0.172672,-0.14396 -8.64572,-8.20422 c -2.299123,1.66684 -5.171566,2.65693 -8.287723,2.65693 C 6.118715,25.945892 0,20.137592 0,12.972842 0,5.808266 6.118715,0 13.666825,0 Z m 6.377499,11.243202 H 7.289942 c -1.007599,0 -1.822193,0.77439 -1.822193,1.72964 0,0.95575 0.816738,1.72985 1.822193,1.72985 v 0 h 12.755339 c 1.007652,0 1.822364,-0.7744 1.822364,-1.72985 0,-0.95494 -0.816679,-1.72964 -1.822364,-1.72964 z"
     id="🎨-Color-5"
     style="fill:#4e4e4e;fill-opacity:1;fill-rule:nonzero;stroke:none;stroke-width:3.31709" />
  <g
     style="fill:#4e4e4e;fill-opacity:1;stroke-width:1.86837"
     id="g3486"
     transform="matrix(1.8222091,0,0,1.7297219,94.177132,-4.756775)" />
</svg>
