<?xml version="1.0" encoding="UTF-8" standalone="no"?>
<svg
   xmlns:dc="http://purl.org/dc/elements/1.1/"
   xmlns:cc="http://creativecommons.org/ns#"
   xmlns:rdf="http://www.w3.org/1999/02/22-rdf-syntax-ns#"
   xmlns:svg="http://www.w3.org/2000/svg"
   xmlns="http://www.w3.org/2000/svg"
   width="22.000305"
   height="22"
   viewBox="0 0 22.000305 22"
   version="1.1"
   id="svg1663">
  <defs
     id="defs1657" />
  <metadata
     id="metadata1660">
    <rdf:RDF>
      <cc:Work
         rdf:about="">
        <dc:format>image/svg+xml</dc:format>
        <dc:type
           rdf:resource="http://purl.org/dc/dcmitype/StillImage" />
        <dc:title></dc:title>
      </cc:Work>
    </rdf:RDF>
  </metadata>
  <g
     id="layer1"
     transform="translate(-25.059782,-42.446726)">
    <path
       d="m 33.979042,42.446726 c 4.925824,0 8.919018,3.993127 8.919018,8.918909 0,2.033631 -0.68104,3.908371 -1.82663,5.408775 v 0 l 5.64037,5.642229 c 0.464383,0.464383 0.464383,1.21737 0,1.681746 -0.428274,0.428696 -1.103184,0.461699 -1.569668,0.09902 v 0 l -0.112517,-0.09902 -5.642213,-5.640438 c -1.500473,1.145904 -3.375224,1.8266 -5.408768,1.8266 -4.92574,0 -8.918852,-3.99318 -8.918852,-8.918912 0,-4.925782 3.993112,-8.918909 8.918852,-8.918909 z m 0,3.567567 c -0.657528,0 -1.189092,0.532403 -1.189092,1.189191 v 2.972968 h -2.97298 c -0.657524,0 -1.189171,0.532407 -1.189171,1.189183 0,0.656772 0.533242,1.189182 1.189171,1.189182 h 2.97298 v 2.972973 c 0,0.656772 0.533246,1.189182 1.189092,1.189182 0.657524,0 1.189259,-0.532403 1.189259,-1.189182 v -2.972973 h 2.972979 c 0.657524,0 1.189172,-0.532403 1.189172,-1.189182 0,-0.656769 -0.533242,-1.189183 -1.189172,-1.189183 h -2.972979 v -2.972968 c 0,-0.656773 -0.533246,-1.189191 -1.189259,-1.189191 z"
       id="🎨-Color-3"
       style="display:inline;fill:#ccc5b9;fill-opacity:1;fill-rule:nonzero;stroke:none;stroke-width:2.22184" />
  </g>
</svg>
