<?xml version="1.0" encoding="UTF-8" standalone="no"?>
<svg
   xmlns:dc="http://purl.org/dc/elements/1.1/"
   xmlns:cc="http://creativecommons.org/ns#"
   xmlns:rdf="http://www.w3.org/1999/02/22-rdf-syntax-ns#"
   xmlns:svg="http://www.w3.org/2000/svg"
   xmlns="http://www.w3.org/2000/svg"
   xmlns:sodipodi="http://sodipodi.sourceforge.net/DTD/sodipodi-0.dtd"
   xmlns:inkscape="http://www.inkscape.org/namespaces/inkscape"
   width="40.481621"
   height="30.741577"
   viewBox="0 0 40.48162 30.741577"
   version="1.1"
   id="svg645"
   sodipodi:docname="zoom_loop.svg"
   inkscape:version="1.0.1 (0767f8302a, 2020-10-17)">
  <sodipodi:namedview
     pagecolor="#ffffff"
     bordercolor="#666666"
     borderopacity="1"
     objecttolerance="10"
     gridtolerance="10"
     guidetolerance="10"
     inkscape:pageopacity="0"
     inkscape:pageshadow="2"
     inkscape:window-width="1920"
     inkscape:window-height="973"
     id="namedview13"
     showgrid="false"
     fit-margin-top="0"
     fit-margin-left="0"
     fit-margin-right="0"
     fit-margin-bottom="0"
     inkscape:zoom="7.1785548"
     inkscape:cx="-54.03601"
     inkscape:cy="15.370523"
     inkscape:window-x="0"
     inkscape:window-y="27"
     inkscape:window-maximized="1"
     inkscape:current-layer="svg645" />
  <defs
     id="defs639" />
  <metadata
     id="metadata642">
    <rdf:RDF>
      <cc:Work
         rdf:about="">
        <dc:format>image/svg+xml</dc:format>
        <dc:type
           rdf:resource="http://purl.org/dc/dcmitype/StillImage" />
        <dc:title></dc:title>
      </cc:Work>
    </rdf:RDF>
  </metadata>
  <g
     id="g3435"
     transform="matrix(12.867656,0,0,12.214556,-1863.8632,-727.42513)"
     style="fill:#4e4e4e;fill-opacity:1">
    <g
       style="display:inline;opacity:1;fill:#4e4e4e;fill-opacity:1;stroke-width:9.40136"
       id="g3400"
       transform="matrix(0.15729991,0,0,0.15729991,144.5341,58.924756)">
      <path
         d="M 4.25,4 C 3.00736,4 2,5.00736 2,6.25 v 11.5 C 2,18.9926 3.00736,20 4.25,20 h 15.5 C 20.9926,20 22,18.9926 22,17.75 V 6.25 C 22,5.00736 20.9926,4 19.75,4 Z M 7.99388,9.43558 C 8.30561,9.70834 8.33719,10.1822 8.06443,10.4939 L 7.40284,11.25 h 2.86176 c 0.4142,0 0.75,0.3358 0.75,0.75 0,0.4142 -0.3358,0.75 -0.75,0.75 H 7.40281 l 0.66163,0.7561 c 0.27275,0.3118 0.24116,0.7856 -0.07056,1.0583 -0.31173,0.2728 -0.78556,0.2412 -1.05832,-0.0705 l -1.75,-2 c -0.24742,-0.2828 -0.24741,-0.705 1e-5,-0.9878 l 1.75,-1.99997 C 7.20833,9.1944 7.68216,9.16282 7.99388,9.43558 Z M 15.9502,10.4939 C 15.6775,10.1822 15.709,9.70834 16.0208,9.43558 16.3325,9.16282 16.8063,9.1944 17.0791,9.50613 l 1.75,1.99997 c 0.2474,0.2828 0.2474,0.705 0,0.9878 l -1.75,2 c -0.2728,0.3117 -0.7466,0.3433 -1.0583,0.0705 -0.3118,-0.2727 -0.3433,-0.7465 -0.0706,-1.0583 L 16.6118,12.75 h -2.8617 c -0.4142,0 -0.75,-0.3358 -0.75,-0.75 0,-0.4142 0.3358,-0.75 0.75,-0.75 h 2.8617 z"
         fill="#212121"
         id="path3389"
         style="fill:#4e4e4e;fill-opacity:1;stroke-width:15.8134" />
    </g>
  </g>
</svg>
